<svg id="visual" viewBox="0 0 3840 2160" width="3840" height="2160" xmlns="http://www.w3.org/2000/svg" xmlns:xlink="http://www.w3.org/1999/xlink" version="1.1"><rect x="0" y="0" width="3840" height="2160" fill="#001220"></rect><path d="M0 1699L91.5 1706.8C183 1714.7 366 1730.3 548.8 1737.2C731.7 1744 914.3 1742 1097.2 1728.5C1280 1715 1463 1690 1645.8 1683.3C1828.7 1676.7 2011.3 1688.3 2194.2 1713.8C2377 1739.3 2560 1778.7 2742.8 1771.2C2925.7 1763.7 3108.3 1709.3 3291.2 1708.5C3474 1707.7 3657 1760.3 3748.5 1786.7L3840 1813L3840 2161L3748.5 2161C3657 2161 3474 2161 3291.2 2161C3108.3 2161 2925.7 2161 2742.8 2161C2560 2161 2377 2161 2194.2 2161C2011.3 2161 1828.7 2161 1645.8 2161C1463 2161 1280 2161 1097.2 2161C914.3 2161 731.7 2161 548.8 2161C366 2161 183 2161 91.5 2161L0 2161Z" fill="#1f2937"></path><path d="M0 1922L91.5 1914.8C183 1907.7 366 1893.3 548.8 1878.3C731.7 1863.3 914.3 1847.7 1097.2 1862.2C1280 1876.7 1463 1921.3 1645.8 1928.2C1828.7 1935 2011.3 1904 2194.2 1889.3C2377 1874.7 2560 1876.3 2742.8 1864.5C2925.7 1852.7 3108.3 1827.3 3291.2 1811.5C3474 1795.7 3657 1789.3 3748.5 1786.2L3840 1783L3840 2161L3748.5 2161C3657 2161 3474 2161 3291.2 2161C3108.3 2161 2925.7 2161 2742.8 2161C2560 2161 2377 2161 2194.2 2161C2011.3 2161 1828.7 2161 1645.8 2161C1463 2161 1280 2161 1097.2 2161C914.3 2161 731.7 2161 548.8 2161C366 2161 183 2161 91.5 2161L0 2161Z" fill="#18202f"></path><path d="M0 1926L91.5 1944.7C183 1963.3 366 2000.7 548.8 2007.3C731.7 2014 914.3 1990 1097.2 1986.7C1280 1983.3 1463 2000.7 1645.8 2011.2C1828.7 2021.7 2011.3 2025.3 2194.2 2019.8C2377 2014.3 2560 1999.7 2742.8 2005.2C2925.7 2010.7 3108.3 2036.3 3291.2 2042.8C3474 2049.3 3657 2036.7 3748.5 2030.3L3840 2024L3840 2161L3748.5 2161C3657 2161 3474 2161 3291.2 2161C3108.3 2161 2925.7 2161 2742.8 2161C2560 2161 2377 2161 2194.2 2161C2011.3 2161 1828.7 2161 1645.8 2161C1463 2161 1280 2161 1097.2 2161C914.3 2161 731.7 2161 548.8 2161C366 2161 183 2161 91.5 2161L0 2161Z" fill="#111827"></path></svg>