<svg id="visual" viewBox="0 0 2160 3840" width="2160" height="3840" xmlns="http://www.w3.org/2000/svg" xmlns:xlink="http://www.w3.org/1999/xlink" version="1.1"><rect x="0" y="0" width="2160" height="3840" fill="#001220"></rect><defs><linearGradient id="grad1_0" x1="0%" y1="0%" x2="100%" y2="100%"><stop offset="30%" stop-color="#001220" stop-opacity="1"></stop><stop offset="70%" stop-color="#001220" stop-opacity="1"></stop></linearGradient></defs><defs><linearGradient id="grad2_0" x1="0%" y1="0%" x2="100%" y2="100%"><stop offset="30%" stop-color="#001220" stop-opacity="1"></stop><stop offset="70%" stop-color="#001220" stop-opacity="1"></stop></linearGradient></defs><g transform="translate(2160, 0)"><path d="M0 1296C-151.5 1232.4 -303 1168.9 -461.9 1115.1C-620.8 1061.4 -787 1017.4 -916.4 916.4C-1045.8 815.4 -1138.4 657.4 -1195.5 495.2C-1252.6 333 -1274.3 166.5 -1296 0L0 0Z" fill="#111827"></path></g><g transform="translate(0, 3840)"><path d="M0 -1296C174.4 -1285.6 348.8 -1275.2 496 -1197.3C643.1 -1119.5 762.9 -974.3 830.9 -830.9C898.8 -687.4 915 -545.7 983.9 -407.6C1052.8 -269.4 1174.4 -134.7 1296 0L0 0Z" fill="#111827"></path></g></svg>